<svg width="216" height="70" viewBox="0 0 216 70" fill="none" xmlns="http://www.w3.org/2000/svg">
<path d="M18.0424 5.08242C17.2253 4.94228 17.1908 4.92584 17.5753 4.86049C18.3123 4.73519 20.0523 4.90598 21.2514 5.2212C24.0507 5.95693 26.598 7.84164 29.317 11.1889L30.0393 12.0782L31.0727 11.8945C35.4261 11.1209 39.8548 11.7357 43.559 13.6277C44.578 14.1483 46.1849 15.1844 46.3856 15.4507C46.4495 15.5355 46.5668 16.0818 46.6463 16.6646C46.9214 18.6812 46.7836 20.2269 46.2261 21.3814C45.9224 22.0096 45.9055 22.2087 46.1097 22.7463C46.2726 23.1754 46.7267 23.4929 47.1765 23.4923C48.0968 23.4909 49.0875 21.8456 49.5468 19.5563L49.7293 18.6469L50.0904 19.0994C52.0719 21.5816 53.6284 24.9668 53.8956 27.3763L53.9651 28.0046L53.6323 27.4335C53.0591 26.4507 52.4829 25.7817 51.7455 25.2421C50.4159 24.2694 49.0102 23.9384 45.2876 23.7215C41.9251 23.5256 40.0221 23.2081 38.1352 22.5277C34.9248 21.3704 33.3064 19.829 29.4928 14.2969C27.799 11.8397 26.752 10.4802 25.7106 9.38532C23.3442 6.89757 21.0189 5.59288 18.0424 5.08242Z" fill="#FF007A"/>
<path d="M47.1438 10.5688C47.2286 8.92228 47.4302 7.83624 47.8365 6.8444C47.9973 6.45184 48.1476 6.13052 48.1711 6.13052C48.1941 6.13052 48.1241 6.42027 48.0155 6.77441C47.7205 7.73695 47.6718 9.05352 47.8752 10.5853C48.1333 12.5289 48.2801 12.8093 50.1382 14.9087C51.0094 15.8935 52.0232 17.1354 52.3904 17.6687L53.0587 18.6382L52.3904 17.9453C51.5734 17.098 49.6945 15.4455 49.2796 15.2092C49.001 15.0508 48.9597 15.0536 48.7881 15.2425C48.6299 15.4166 48.5965 15.6781 48.5748 16.9148C48.5404 18.8421 48.3027 20.0792 47.7296 21.3161C47.4193 21.9851 47.3702 21.8423 47.6509 21.0872C47.8604 20.5234 47.8817 20.2755 47.8804 18.4098C47.8769 14.661 47.4745 13.7597 45.1142 12.2159C44.5162 11.8247 43.5307 11.2607 42.9245 10.9624C42.3183 10.664 41.8367 10.4041 41.8542 10.3847C41.9211 10.3112 44.2229 11.0541 45.1498 11.4482C46.5281 12.0343 46.7554 12.1103 46.9227 12.0396C47.0352 11.9922 47.0895 11.6309 47.1438 10.5688Z" fill="#FF007A"/>
<path d="M19.6297 16.9819C17.9708 14.4567 16.9444 10.5851 17.1666 7.69083L17.2353 6.7952L17.613 6.87138C18.3221 7.01437 19.5447 7.51754 20.1172 7.90203C21.6883 8.95699 22.3685 10.346 23.0604 13.9127C23.2631 14.9574 23.529 16.1396 23.6514 16.5399C23.8484 17.1841 24.5928 18.6889 25.198 19.6662C25.6339 20.3701 25.3443 20.7036 24.3807 20.6074C22.9091 20.4606 20.9157 18.9394 19.6297 16.9819Z" fill="#FF007A"/>
<path d="M45.1316 35.7755C37.3793 32.3243 34.6489 29.3286 34.6489 24.274C34.6489 23.5301 34.6721 22.9215 34.7003 22.9215C34.7285 22.9215 35.0285 23.167 35.3668 23.4671C36.9389 24.8612 38.6992 25.4567 43.5725 26.2428C46.4404 26.7054 48.0542 27.079 49.5429 27.6249C54.2745 29.36 57.2019 32.8811 57.9002 37.6771C58.1032 39.0706 57.9841 41.684 57.6552 43.0613C57.3957 44.1492 56.6032 46.1101 56.3928 46.1855C56.3346 46.2063 56.2777 45.9593 56.2625 45.6233C56.183 43.8224 55.36 42.0692 53.9777 40.7558C52.406 39.2627 50.2947 38.0738 45.1316 35.7755Z" fill="#FF007A"/>
<path d="M39.6893 37.2093C39.5922 36.5702 39.4237 35.754 39.3149 35.3956L39.1171 34.744L39.4845 35.1999C39.993 35.8309 40.3948 36.6383 40.7353 37.7138C40.9952 38.5346 41.0245 38.7787 41.0225 40.1125C41.0205 41.422 40.988 41.6965 40.748 42.4353C40.3697 43.6003 39.9 44.4264 39.1119 45.3131C37.6958 46.9068 35.8751 47.789 33.2478 48.1549C32.7911 48.2182 31.46 48.3256 30.2897 48.3927C27.3406 48.5624 25.3996 48.9129 23.6555 49.5901C23.4048 49.6873 23.1809 49.7467 23.1582 49.7216C23.0876 49.6438 24.2751 48.8612 25.2559 48.3386C26.6389 47.6019 28.0156 47.2002 31.1001 46.6322C32.6239 46.3514 34.1974 46.0111 34.597 45.8757C38.3704 44.5964 40.3101 41.2953 39.6893 37.2093Z" fill="#FF007A"/>
<path d="M43.2431 44.1877C42.2131 41.7394 41.9766 39.3757 42.5408 37.1713C42.6013 36.9357 42.6983 36.7429 42.7567 36.7429C42.8151 36.7429 43.0582 36.8882 43.2968 37.0657C43.7715 37.419 44.7236 38.014 47.2595 39.5429C50.4242 41.4507 52.2288 42.928 53.4559 44.6157C54.5305 46.0937 55.1953 47.7774 55.5155 49.8304C55.6967 50.993 55.5903 53.7908 55.3204 54.9616C54.4696 58.6538 52.4921 61.5537 49.6716 63.2461C49.2583 63.4941 48.8872 63.6976 48.8473 63.6985C48.8068 63.6995 48.9576 63.276 49.1818 62.7578C50.1304 60.5647 50.2386 58.4315 49.5212 56.057C49.0819 54.603 48.1863 52.8289 46.3783 49.8304C44.2756 46.3446 43.7602 45.4169 43.2431 44.1877Z" fill="#FF007A"/>
<path d="M14.1242 57.397C17.001 54.7113 20.5806 52.8033 23.8412 52.2174C25.2464 51.9651 27.5873 52.0652 28.8885 52.4335C30.9743 53.0237 32.8401 54.3458 33.8105 55.9207C34.7588 57.4599 35.1657 58.8013 35.5892 61.7858C35.7564 62.9633 35.9381 64.1452 35.9931 64.413C36.3112 65.9599 36.9302 67.196 37.6974 67.8171C38.9157 68.8032 41.0137 68.8642 43.0776 67.9742C43.4279 67.8229 43.7319 67.7185 43.7532 67.7422C43.8284 67.8244 42.789 68.5934 42.0558 68.9985C41.0693 69.5433 40.2848 69.7541 39.2425 69.7541C37.3522 69.7541 35.7829 68.6911 34.4734 66.5231C34.2157 66.0962 33.6365 64.8186 33.1863 63.6831C31.8037 60.1964 31.121 59.1344 29.5156 57.9718C28.1186 56.9605 26.3169 56.7792 24.9615 57.514C23.1811 58.4793 22.6843 60.9949 23.9595 62.5892C24.4663 63.2229 25.4114 63.7692 26.1842 63.8755C27.63 64.0747 28.8725 62.8584 28.8725 61.2444C28.8725 60.1964 28.5082 59.5984 27.5911 59.1406C26.3386 58.5156 24.9922 59.2465 24.9987 60.5473C25.0014 61.1023 25.2199 61.4503 25.7229 61.7022C26.0456 61.8636 26.053 61.8762 25.7899 61.8157C24.6407 61.5523 24.3715 60.0204 25.2955 59.0034C26.4049 57.7828 28.699 58.3213 29.4868 59.988C29.8178 60.688 29.8561 62.0821 29.5676 62.9237C28.9219 64.808 27.0389 65.7985 25.1287 65.2595C23.8282 64.8921 23.2986 64.4947 21.7307 62.7091C19.0061 59.6057 17.9484 59.0043 14.0204 58.3266L13.2677 58.1966L14.1242 57.397Z" fill="#FF007A"/>
<path fill-rule="evenodd" clip-rule="evenodd" d="M1.34002 1.85616C10.4389 14.0666 16.7058 19.1044 17.4022 20.1688C17.9772 21.0476 17.7608 21.8378 16.7758 22.457C16.228 22.8013 15.1017 23.1501 14.5378 23.1501C13.9 23.1501 13.681 22.8781 13.681 22.8781C13.3113 22.4902 13.103 22.5581 11.2039 18.8309C8.56745 14.3076 6.36104 10.5553 6.30086 10.4925C6.16168 10.3472 6.16407 10.3521 10.9351 19.7909C11.706 21.7581 11.0884 22.4803 11.0884 22.7605C11.0884 23.3304 10.9478 23.63 10.3119 24.4144C9.25175 25.722 8.77785 27.1913 8.43575 30.2321C8.05227 33.6408 6.97386 36.0486 3.98532 40.1697C2.23593 42.582 1.94967 43.0242 1.50825 43.9964C0.952246 45.2208 0.799366 45.9066 0.737402 47.4526C0.671909 49.0874 0.799461 50.1436 1.25116 51.7065C1.6466 53.075 2.05938 53.9784 3.11461 55.7854C4.02528 57.3448 4.54962 58.504 4.54962 58.9574C4.54962 59.318 4.61193 59.3185 6.02306 58.9661C9.4001 58.1231 12.1422 56.64 13.6844 54.8224C14.6389 53.6976 14.863 53.0764 14.8703 51.5353C14.875 50.527 14.843 50.3157 14.5965 49.7357C14.1952 48.7916 13.4647 48.0066 11.8547 46.7898C9.7452 45.1953 8.84416 43.9116 8.59531 42.1462C8.39112 40.6977 8.62798 39.6757 9.795 36.9713C11.0029 34.172 11.3023 32.9792 11.5047 30.1576C11.6355 28.3346 11.8166 27.6157 12.2903 27.0387C12.7844 26.4369 13.2291 26.2331 14.4518 26.0484C16.4451 25.7474 17.7144 25.1772 18.7577 24.1142C19.6627 23.192 20.0414 22.3035 20.0995 20.9659L20.1437 19.952L19.6379 19.3C17.8063 16.9387 0.113414 0 0.000697145 0C-0.0233823 0 0.579337 0.835328 1.34002 1.85616ZM5.5778 49.3025C5.99191 48.4914 5.77186 47.4492 5.07918 46.9397C4.42469 46.4587 3.40793 46.6854 3.40793 47.3124C3.40793 47.5038 3.50363 47.643 3.7193 47.7658C4.08247 47.9722 4.10883 48.2047 3.82309 48.6794C3.53373 49.1604 3.55708 49.5834 3.889 49.8705C4.42395 50.3336 5.1812 50.0789 5.5778 49.3025Z" fill="#FF007A"/>
<path fill-rule="evenodd" clip-rule="evenodd" d="M21.4016 26.5802C20.4658 26.898 19.5562 27.9946 19.2746 29.1444C19.1028 29.8459 19.2003 31.0763 19.4576 31.4563C19.8732 32.0701 20.2752 32.2318 21.3637 32.2233C23.4947 32.2069 25.3473 31.1963 25.5627 29.933C25.7392 28.8975 24.9256 27.4623 23.8048 26.8322C23.2265 26.5073 21.9966 26.3783 21.4016 26.5802ZM23.8927 28.7341C24.2214 28.2178 24.0776 27.6598 23.5187 27.2824C22.4543 26.5638 20.8447 27.1585 20.8447 28.2702C20.8447 28.8236 21.6841 29.4274 22.4535 29.4274C22.9656 29.4274 23.6664 29.0898 23.8927 28.7341Z" fill="#FF007A"/>
<path d="M91.2713 24.8182V41.9872C91.2713 46.1548 88.3054 49.1974 83.7415 49.1974C79.1776 49.1974 76.2116 46.1548 76.2116 41.9872V24.8182H73.821V42.1534C73.8082 47.4972 77.848 51.4474 83.7415 51.4474C89.6477 51.4474 93.6619 47.4972 93.6619 42.1534V24.8182H91.2713ZM102.413 38.7273C102.413 35.3011 104.663 33.1918 107.756 33.1918C110.773 33.1918 112.717 35.2116 112.717 38.4205V51H114.992V38.2798C114.992 33.6264 112.295 31.108 108.332 31.108C105.455 31.108 103.474 32.4375 102.553 34.4446H102.349V31.3636H100.137V51H102.413V38.7273ZM121.01 51H123.299V31.3636H121.01V51ZM122.174 27.9886C123.107 27.9886 123.887 27.2472 123.887 26.3523C123.887 25.4574 123.107 24.7159 122.174 24.7159C121.24 24.7159 120.473 25.4574 120.473 26.3523C120.473 27.2472 121.24 27.9886 122.174 27.9886ZM131.132 51.1918C132.155 51.1918 132.973 50.3608 132.973 49.3509C132.973 48.3281 132.155 47.5099 131.132 47.5099C130.122 47.5099 129.291 48.3281 129.291 49.3509C129.291 50.3608 130.122 51.1918 131.132 51.1918ZM139.496 24.8182H136.99L146.515 51H149.071L158.596 24.8182H156.09L147.908 47.8935H147.678L139.496 24.8182ZM168.414 51.4091C173.502 51.4091 177.056 47.2543 177.056 41.2713C177.056 35.25 173.502 31.0952 168.414 31.0952C163.326 31.0952 159.772 35.25 159.772 41.2713C159.772 47.2543 163.326 51.4091 168.414 51.4091ZM168.414 49.3253C164.336 49.3253 162.06 45.669 162.06 41.2713C162.06 36.8736 164.336 33.1662 168.414 33.1662C172.492 33.1662 174.767 36.8736 174.767 41.2713C174.767 45.669 172.492 49.3253 168.414 49.3253ZM189.786 31.3636H185.631V26.6591H183.342V31.3636H180.415V33.3452H183.342V46.4105C183.342 49.6193 185.874 51.294 188.392 51.294C189.338 51.294 189.977 51.1151 190.412 50.9489L189.926 48.8906C189.607 48.9801 189.197 49.0696 188.597 49.0696C187.05 49.0696 185.631 48.3409 185.631 45.8736V33.3452H189.786V31.3636ZM202.681 51.4091C206.619 51.4091 209.265 49.2741 210.16 46.8068L208 46.1037C207.245 47.8679 205.468 49.3253 202.681 49.3253C198.667 49.3253 196.123 46.3977 196.021 41.8594H210.646V40.7344C210.646 34.1761 206.593 31.0952 202.336 31.0952C197.248 31.0952 193.733 35.3523 193.733 41.2969C193.733 47.2543 197.184 51.4091 202.681 51.4091ZM196.034 39.8523C196.277 36.196 198.744 33.1662 202.336 33.1662C205.852 33.1662 208.319 36.0682 208.319 39.8523H196.034Z" fill="white"/>
</svg>
